<?xml version="1.0" standalone="no"?>
<!DOCTYPE svg PUBLIC "-//W3C//DTD SVG 20010904//EN"
 "http://www.w3.org/TR/2001/REC-SVG-20010904/DTD/svg10.dtd">
<svg version="1.0" xmlns="http://www.w3.org/2000/svg"
 width="460.000000pt" height="460.000000pt" viewBox="0 0 460.000000 460.000000"
 preserveAspectRatio="xMidYMid meet">
<metadata>
Created by potrace 1.14, written by Peter Selinger 2001-2017
</metadata>
<g transform="translate(0.000000,460.000000) scale(0.100000,-0.100000)"
fill="#000000" stroke="none">
<path d="M2350 4439 c-138 -27 -274 -98 -380 -198 -47 -44 -93 -81 -103 -81
-9 0 -45 11 -80 26 -320 131 -560 182 -724 154 -180 -30 -303 -137 -370 -320
-25 -69 -27 -87 -27 -230 0 -140 3 -168 31 -285 70 -289 189 -485 414 -681 49
-43 167 -117 254 -159 82 -40 243 -89 320 -97 29 -3 30 -4 27 -50 -5 -68 -63
-194 -105 -229 -53 -43 -75 -88 -87 -167 -12 -84 1 -197 32 -279 18 -49 19
-59 6 -106 -22 -87 -17 -278 10 -369 29 -99 65 -178 115 -251 40 -59 133 -144
188 -172 26 -14 29 -21 29 -63 1 -102 65 -177 211 -246 l88 -42 -67 -44 c-203
-132 -361 -218 -457 -245 -55 -16 -62 -16 -111 -1 -69 22 -140 86 -207 189
-59 90 -155 283 -181 363 l-17 51 35 79 c19 44 42 116 52 162 15 71 16 92 5
150 -23 132 -88 222 -181 256 -28 10 -51 19 -51 20 -1 0 -5 125 -9 276 -7 262
-9 279 -35 359 -36 113 -68 145 -138 138 -120 -11 -154 -128 -123 -423 24
-229 21 -344 -11 -344 -37 0 -93 98 -188 331 -105 257 -151 319 -238 319 -35
0 -102 -38 -120 -69 -20 -34 -24 -162 -6 -226 24 -86 92 -206 198 -347 61 -81
111 -152 111 -158 0 -5 -19 -10 -43 -10 -144 0 -258 -103 -244 -220 7 -60 37
-120 75 -152 16 -13 63 -39 104 -58 l76 -34 4 -73 c6 -96 36 -140 116 -176 31
-14 71 -28 87 -31 20 -5 35 -16 43 -34 24 -52 44 -84 112 -174 38 -50 103
-150 146 -222 92 -156 154 -245 172 -246 14 0 16 16 3 25 -12 7 -101 134 -109
155 -11 28 -115 195 -157 250 -60 80 -120 171 -144 218 -21 42 -24 44 -124 68
-73 17 -137 122 -123 198 7 36 7 36 58 36 39 0 65 7 105 30 48 28 54 29 59 13
18 -54 40 -103 46 -103 5 0 -1 24 -12 52 -31 82 -28 90 38 121 57 26 173 122
192 158 6 10 9 19 8 19 -2 0 -30 -25 -63 -56 -94 -88 -141 -117 -201 -122 -65
-5 -91 9 -100 53 -20 108 153 333 315 411 45 22 62 25 104 20 98 -13 147 -53
196 -156 27 -57 31 -76 31 -151 0 -47 -5 -101 -11 -120 -21 -65 -61 -163 -75
-185 -13 -19 -11 -31 22 -115 39 -103 126 -274 176 -348 54 -78 131 -153 183
-177 69 -33 119 -30 218 9 l83 34 24 -61 c34 -88 104 -198 168 -265 20 -21 52
-7 171 74 61 41 113 75 115 75 12 0 23 -72 19 -114 l-6 -46 242 0 241 0 -5
113 c-11 228 -29 448 -37 453 -4 3 -8 10 -8 16 0 20 30 -14 31 -36 0 -11 3
-16 5 -9 6 14 28 7 66 -20 22 -16 38 -19 90 -15 35 3 73 10 84 16 31 17 136
62 145 62 4 0 20 11 35 25 15 14 36 25 46 25 11 0 16 5 13 10 -3 6 5 14 18 19
14 6 28 14 31 20 4 6 14 8 24 5 13 -5 14 -4 3 4 -9 6 -10 12 -3 16 6 4 16 -2
21 -13 11 -21 5 -51 -10 -51 -5 0 -9 -6 -9 -13 0 -7 -7 -23 -16 -36 -13 -18
-18 -20 -26 -10 -6 9 -7 5 -3 -12 5 -19 -1 -34 -21 -58 -18 -22 -29 -29 -34
-21 -5 9 -9 9 -14 1 -4 -6 -2 -11 3 -11 20 0 11 -15 -34 -63 -49 -50 -111 -87
-135 -80 -8 3 -5 -2 7 -11 28 -21 52 -17 96 17 19 14 38 23 42 19 3 -4 5 -2 3
3 -1 6 10 27 27 47 21 27 32 34 38 25 6 -8 7 -6 3 6 -4 12 3 30 20 50 27 32
68 48 58 23 -3 -8 -1 -17 5 -21 7 -4 10 2 7 17 -2 14 -10 22 -20 22 -21 -2
-20 5 3 39 l18 28 11 -73 c6 -40 9 -96 7 -123 -3 -34 -1 -45 6 -35 6 10 7 -6
3 -48 -5 -51 -4 -62 7 -60 10 2 15 -8 16 -32 2 -30 17 -128 28 -187 2 -10 4
-24 4 -30 1 -10 123 -13 576 -13 568 0 575 0 575 20 0 13 -16 30 -45 48 -37
23 -43 30 -33 41 11 11 9 11 -9 0 -19 -12 -25 -11 -45 8 -13 11 -40 28 -61 38
-21 10 -45 29 -54 41 -8 13 -23 24 -32 24 -17 1 -51 23 -51 34 0 3 12 6 28 7
l27 1 -25 7 c-14 4 -26 4 -28 -1 -2 -4 -8 -8 -12 -8 -17 0 -120 83 -114 91 3
5 0 9 -6 9 -6 0 -16 5 -23 10 -7 6 -21 17 -32 24 -14 10 -17 17 -9 27 6 8 7
27 3 44 l-8 30 2 -32 c1 -18 -2 -33 -6 -33 -28 -1 -31 1 -17 10 13 8 12 10 -3
10 -39 0 -166 163 -153 196 3 8 9 13 14 10 4 -2 8 4 8 15 0 25 -16 25 -23 -1
-7 -28 -21 -25 -29 5 -3 14 -9 25 -13 25 -12 0 -31 49 -22 55 5 3 9 26 8 52 0
39 -2 43 -9 23 -5 -14 -6 -36 -3 -50 5 -24 5 -24 -10 -6 -8 11 -16 27 -17 35
-2 26 -4 35 -16 64 -16 39 -15 55 3 31 14 -18 14 -18 15 4 0 15 -7 26 -19 29
-15 4 -20 17 -23 66 -7 88 2 157 18 157 8 0 14 5 14 11 0 5 -4 7 -10 4 -22
-13 -2 42 41 115 17 29 94 107 133 135 39 28 86 47 86 35 0 -5 -10 -10 -21
-10 -17 0 -19 -3 -10 -13 6 -8 8 -17 4 -20 -3 -4 -2 -7 3 -7 5 0 16 16 25 36
22 52 65 64 224 68 72 2 93 1 48 -1 -46 -2 -83 -7 -83 -11 0 -10 173 -2 186 9
12 10 102 3 119 -10 5 -4 22 -8 38 -9 l27 -2 0 76 c0 91 -19 134 -85 192 l-45
40 34 75 c48 105 66 170 67 246 0 36 3 60 6 54 17 -44 23 12 23 225 l0 237
-33 23 -32 22 33 0 32 0 0 104 c0 118 9 107 -98 127 -40 7 -108 10 -183 6 -65
-3 -119 -4 -119 -2 0 1 12 29 27 61 25 54 27 71 31 212 3 116 0 170 -13 226
-31 144 -148 333 -248 404 -27 20 -111 58 -189 86 -140 52 -140 52 -154 91
-32 95 -161 151 -249 109 -33 -15 -36 -14 -126 21 -104 42 -230 101 -282 134
-125 77 -304 164 -369 180 -54 13 -212 13 -278 0z m263 -23 c81 -16 142 -44
347 -161 74 -42 207 -106 295 -141 88 -36 197 -81 241 -101 l81 -36 37 -76
c83 -175 133 -377 141 -576 6 -129 -1 -143 -52 -108 -46 32 -347 195 -498 270
-183 91 -648 330 -749 385 -44 24 -82 49 -84 57 -3 9 2 11 14 8 11 -3 46 -3
79 1 l59 7 -109 74 c-61 41 -112 76 -114 78 -9 7 18 26 41 28 13 1 27 3 31 4
8 1 -64 74 -89 89 -5 4 -17 18 -26 31 l-16 23 -39 -62 c-21 -34 -48 -78 -60
-96 -22 -33 -22 -34 -3 -34 23 0 27 -28 6 -36 -8 -3 -43 7 -78 21 -34 15 -87
36 -115 47 -29 12 -53 24 -53 28 0 9 140 136 190 171 65 47 203 96 320 113 58
8 133 5 203 -8z m152 -1005 c9 -16 202 -139 273 -175 99 -50 248 -94 351 -104
51 -5 94 -11 96 -13 2 -2 -3 -33 -10 -69 -19 -85 -19 -249 -1 -343 34 -177
107 -334 183 -392 82 -63 168 -41 191 49 7 25 14 32 38 34 94 9 132 105 83
212 -24 53 -21 57 70 91 141 53 298 -18 378 -171 26 -51 28 -63 27 -160 0 -89
-4 -115 -26 -171 -32 -82 -67 -131 -136 -192 -96 -86 -83 -82 -302 -82 l-195
0 -68 -32 c-91 -43 -139 -83 -187 -153 -59 -87 -88 -160 -126 -320 -29 -117
-36 -173 -41 -287 l-6 -141 -66 -30 c-121 -53 -179 -73 -306 -106 -195 -49
-518 -64 -695 -32 -242 43 -461 147 -556 263 -100 124 -154 266 -162 426 -12
263 62 482 222 654 l30 33 25 -23 c14 -12 9 -3 -11 19 -92 106 -121 205 -97
333 9 45 12 84 7 89 -10 10 -28 157 -28 227 l1 50 102 82 c138 110 336 256
367 270 14 7 40 22 58 34 l32 21 -2 -46 c-1 -52 24 -89 69 -101 36 -9 118 35
180 96 58 57 203 168 220 169 6 0 14 -4 18 -9z m-1865 -1108 c24 -22 37 -48
57 -123 25 -88 27 -110 28 -310 1 -118 5 -234 9 -256 l7 -42 -37 -7 c-109 -20
-269 -153 -350 -292 -20 -35 -37 -63 -38 -63 0 0 -39 16 -86 35 -84 34 -120
42 -120 27 0 -4 24 -13 52 -20 29 -7 73 -22 98 -35 45 -22 45 -22 48 -79 2
-48 7 -61 29 -78 14 -11 34 -20 44 -20 31 0 11 -27 -37 -51 -62 -29 -124 -28
-208 6 -140 56 -196 120 -196 222 0 113 112 193 253 180 31 -3 57 -3 57 -1 0
9 -35 60 -105 153 -149 199 -184 257 -220 364 -28 83 -33 185 -12 226 20 39
64 66 109 66 35 0 46 -6 78 -43 43 -48 70 -102 145 -287 70 -173 112 -253 152
-292 41 -40 57 -41 80 -6 15 22 18 48 17 138 0 60 -6 144 -14 185 -7 41 -13
127 -14 190 0 95 3 123 20 160 22 49 38 65 69 73 41 10 55 6 85 -20z m749 -64
c1 -23 12 -69 25 -103 l24 -62 -25 -41 c-13 -23 -39 -78 -58 -123 l-33 -83
-22 69 c-43 138 -24 290 44 359 34 34 42 32 45 -16z m1713 -1376 c3 -60 1
-113 -4 -119 -13 -18 -198 -138 -263 -171 -134 -68 -222 -65 -301 12 -52 51
-61 71 -65 150 l-4 59 135 23 c138 24 291 69 415 122 39 16 73 30 76 30 4 1 9
-47 11 -106z m-1099 -289 c9 -3 13 -13 10 -25 -3 -10 -9 -16 -14 -13 -5 3 -9
0 -9 -5 0 -6 4 -11 8 -11 5 0 9 -51 9 -112 0 -62 6 -135 12 -162 13 -54 7 -66
-30 -68 -13 -1 -33 -8 -44 -16 l-20 -14 20 7 c51 18 75 14 33 -6 -43 -19 -68
-36 -62 -41 3 -4 -4 -9 -15 -13 -11 -3 -43 -22 -70 -41 l-50 -34 -26 27 c-14
15 -25 39 -25 53 0 18 -3 21 -9 12 -6 -11 -13 -7 -30 16 -11 17 -21 38 -21 48
0 9 -3 14 -7 11 -8 -9 -34 43 -27 54 3 5 1 9 -4 9 -5 0 -16 19 -26 42 -15 40
-15 43 3 61 18 18 19 18 26 -20 6 -32 9 -35 15 -18 12 28 12 37 0 30 -12 -7
-12 -3 -4 19 3 9 10 16 16 16 5 0 16 7 25 15 8 9 28 19 44 22 15 3 30 11 33
19 3 8 12 14 20 14 8 0 16 3 18 8 4 9 65 52 74 52 4 0 12 7 18 15 6 9 24 17
39 19 15 1 33 8 40 15 9 10 8 11 -8 6 -16 -6 -17 -5 -5 4 17 12 23 13 43 5z
m98 -31 c18 -5 16 -67 -7 -229 -8 -56 -14 -105 -14 -110 -1 -23 -20 25 -20 49
0 16 -5 37 -10 48 -6 10 -10 52 -10 92 3 133 3 137 25 138 17 1 17 2 3 6 -10
2 -18 9 -18 15 0 6 7 7 18 3 9 -4 24 -9 33 -12z m1046 -255 c-3 -8 -6 -5 -6 6
-1 11 2 17 5 13 3 -3 4 -12 1 -19z"/>
<path d="M2695 3250 c-53 -21 -125 -74 -125 -93 0 -6 12 1 28 15 69 63 98 73
222 73 63 0 130 -3 148 -7 17 -4 32 -4 32 1 0 11 -127 31 -197 30 -32 0 -80
-9 -108 -19z"/>
<path d="M2020 3056 c-94 -26 -167 -80 -185 -137 -11 -34 2 -33 21 3 9 18 31
45 48 60 36 32 141 68 196 68 22 0 42 5 45 10 9 14 -69 11 -125 -4z"/>
<path d="M2758 3033 c7 -3 16 -2 19 1 4 3 -2 6 -13 5 -11 0 -14 -3 -6 -6z"/>
<path d="M2928 3033 c7 -3 16 -2 19 1 4 3 -2 6 -13 5 -11 0 -14 -3 -6 -6z"/>
<path d="M3030 3006 c0 -3 9 -10 20 -16 11 -6 20 -8 20 -6 0 3 -9 10 -20 16
-11 6 -20 8 -20 6z"/>
<path d="M2574 2954 c-18 -14 -18 -15 4 -4 12 6 22 13 22 15 0 8 -5 6 -26 -11z"/>
<path d="M2539 2913 c-13 -16 -12 -17 4 -4 16 13 21 21 13 21 -2 0 -10 -8 -17
-17z"/>
<path d="M3161 2905 c14 -17 36 -47 49 -67 14 -20 26 -35 28 -34 5 6 -55 91
-80 111 -21 18 -21 17 3 -10z"/>
<path d="M2506 2883 c-6 -14 -5 -15 5 -6 7 7 10 15 7 18 -3 3 -9 -2 -12 -12z"/>
<path d="M2479 2843 c-13 -16 -12 -17 4 -4 9 7 17 15 17 17 0 8 -8 3 -21 -13z"/>
<path d="M2048 2833 c6 -2 18 -2 25 0 6 3 1 5 -13 5 -14 0 -19 -2 -12 -5z"/>
<path d="M2173 2833 c9 -2 23 -2 30 0 6 3 -1 5 -18 5 -16 0 -22 -2 -12 -5z"/>
<path d="M1998 2823 c7 -3 16 -2 19 1 4 3 -2 6 -13 5 -11 0 -14 -3 -6 -6z"/>
<path d="M2228 2823 c7 -3 16 -2 19 1 4 3 -2 6 -13 5 -11 0 -14 -3 -6 -6z"/>
<path d="M2290 2800 c8 -5 20 -10 25 -10 6 0 3 5 -5 10 -8 5 -19 10 -25 10 -5
0 -3 -5 5 -10z"/>
<path d="M2446 2785 c-9 -26 -7 -32 5 -12 6 10 9 21 6 23 -2 3 -7 -2 -11 -11z"/>
<path d="M1876 2765 c-11 -8 -15 -15 -9 -15 6 0 16 7 23 15 16 19 11 19 -14 0z"/>
<path d="M2340 2776 c0 -3 9 -10 20 -16 11 -6 20 -8 20 -6 0 3 -9 10 -20 16
-11 6 -20 8 -20 6z"/>
<path d="M3251 2760 c0 -8 4 -24 9 -35 5 -13 9 -14 9 -5 0 8 -4 24 -9 35 -5
13 -9 14 -9 5z"/>
<path d="M2427 2736 c-6 -16 -10 -16 -25 -5 -13 11 -13 8 2 -9 17 -20 21 -21
29 -7 4 9 7 21 5 27 -3 7 -7 4 -11 -6z"/>
<path d="M1824 2718 l-19 -23 23 19 c21 18 27 26 19 26 -2 0 -12 -10 -23 -22z"/>
<path d="M3273 2620 c0 -47 2 -66 4 -42 2 23 2 61 0 85 -2 23 -4 4 -4 -43z"/>
<path d="M1781 2664 c-12 -15 -21 -31 -21 -37 0 -12 -1 -13 29 31 27 38 21 43
-8 6z"/>
<path d="M2860 2630 c-12 -12 -20 -33 -20 -55 0 -72 86 -104 129 -49 28 35 26
65 -4 98 -29 32 -76 35 -105 6z"/>
<path d="M3405 2573 c-22 -108 -46 -158 -110 -238 -25 -30 -41 -55 -37 -55 5
0 29 26 54 58 46 59 92 160 103 225 7 43 -2 51 -10 10z"/>
<path d="M3256 2504 c-4 -14 -5 -28 -3 -31 3 -2 8 8 11 23 4 14 5 28 3 31 -3
2 -8 -8 -11 -23z"/>
<path d="M2137 2462 c-24 -26 -21 -65 6 -90 30 -28 52 -28 82 3 31 30 32 55 2
83 -28 27 -68 28 -90 4z"/>
<path d="M3223 2419 c-12 -21 -17 -37 -12 -33 11 6 42 64 37 69 -2 2 -13 -14
-25 -36z"/>
<path d="M2497 2364 c-3 -3 -25 -7 -49 -9 -72 -4 -144 -49 -175 -108 -9 -18
-13 -50 -12 -84 2 -38 -1 -57 -12 -64 -12 -8 -12 -9 1 -7 8 1 33 -9 55 -24 49
-32 103 -42 153 -29 46 13 142 72 125 78 -7 3 -19 -2 -28 -10 -8 -8 -35 -25
-60 -37 -36 -18 -58 -21 -101 -18 -75 6 -115 44 -121 115 -4 41 -1 54 25 89
37 51 102 84 165 84 38 0 53 -6 84 -32 l38 -32 -35 40 c-19 21 -38 42 -41 47
-3 4 -8 5 -12 1z"/>
<path d="M3180 2355 c-7 -9 -11 -17 -9 -20 3 -2 10 5 17 15 14 24 10 26 -8 5z"/>
<path d="M3119 2294 c-13 -14 -17 -23 -9 -19 13 5 46 45 37 45 -2 0 -14 -11
-28 -26z"/>
<path d="M2637 2239 c7 -7 15 -10 18 -7 3 3 -2 9 -12 12 -14 6 -15 5 -6 -5z"/>
<path d="M3040 2240 c-9 -6 -10 -10 -3 -10 6 0 15 5 18 10 8 12 4 12 -15 0z"/>
<path d="M2748 2203 c7 -3 16 -2 19 1 4 3 -2 6 -13 5 -11 0 -14 -3 -6 -6z"/>
<path d="M3213 2203 c9 -2 23 -2 30 0 6 3 -1 5 -18 5 -16 0 -22 -2 -12 -5z"/>
<path d="M2813 2193 c20 -2 54 -2 75 0 20 2 3 4 -38 4 -41 0 -58 -2 -37 -4z"/>
<path d="M3100 2170 c-8 -5 -10 -10 -5 -10 6 0 17 5 25 10 8 5 11 10 5 10 -5
0 -17 -5 -25 -10z"/>
<path d="M3017 2135 c-59 -28 -61 -30 -31 -30 13 0 24 3 24 7 0 4 17 16 38 27
51 28 28 25 -31 -4z"/>
<path d="M1891 2147 c2 -1 13 -9 24 -17 19 -14 19 -14 6 3 -7 9 -18 17 -24 17
-6 0 -8 -1 -6 -3z"/>
<path d="M2038 2083 c7 -3 16 -2 19 1 4 3 -2 6 -13 5 -11 0 -14 -3 -6 -6z"/>
<path d="M2188 2083 c7 -3 16 -2 19 1 4 3 -2 6 -13 5 -11 0 -14 -3 -6 -6z"/>
<path d="M2860 2065 c-25 -13 -40 -24 -35 -24 6 0 30 11 55 24 25 13 41 24 35
24 -5 0 -30 -11 -55 -24z"/>
<path d="M2098 2073 c12 -2 32 -2 45 0 12 2 2 4 -23 4 -25 0 -35 -2 -22 -4z"/>
<path d="M3486 2045 c8 -37 14 -45 14 -19 0 10 -5 26 -10 34 -8 11 -9 7 -4
-15z"/>
<path d="M2755 2010 c-3 -6 1 -7 9 -4 18 7 21 14 7 14 -6 0 -13 -4 -16 -10z"/>
<path d="M3040 2011 c0 -6 4 -13 10 -16 6 -3 7 1 4 9 -7 18 -14 21 -14 7z"/>
<path d="M2570 1940 l-25 -8 27 -1 c14 -1 29 -7 31 -13 3 -7 6 -3 6 10 1 24
-1 24 -39 12z"/>
<path d="M2148 1913 c12 -2 32 -2 45 0 12 2 2 4 -23 4 -25 0 -35 -2 -22 -4z"/>
<path d="M3091 1900 c14 -31 19 -36 19 -24 0 6 -7 19 -16 30 -14 18 -14 18 -3
-6z"/>
<path d="M2223 1835 c0 -22 2 -30 4 -17 2 12 2 30 0 40 -3 9 -5 -1 -4 -23z"/>
<path d="M3140 1784 c0 -6 7 -19 16 -30 14 -18 14 -18 3 6 -14 31 -19 36 -19
24z"/>
<path d="M3369 1723 c-13 -16 -12 -17 4 -4 9 7 17 15 17 17 0 8 -8 3 -21 -13z"/>
<path d="M3170 1725 c0 -5 5 -17 10 -25 5 -8 10 -10 10 -5 0 6 -5 17 -10 25
-5 8 -10 11 -10 5z"/>
<path d="M3319 1673 c-13 -16 -12 -17 4 -4 9 7 17 15 17 17 0 8 -8 3 -21 -13z"/>
<path d="M1921 1624 c0 -11 3 -14 6 -6 3 7 2 16 -1 19 -3 4 -6 -2 -5 -13z"/>
<path d="M3220 1600 c0 -5 5 -10 10 -10 6 0 10 5 10 10 0 6 -4 10 -10 10 -5 0
-10 -4 -10 -10z"/>
<path d="M1930 1595 c0 -11 49 -95 56 -95 3 0 -7 21 -22 48 -33 56 -34 58 -34
47z"/>
<path d="M3030 1490 c-19 -11 -31 -19 -27 -20 11 0 67 29 67 35 0 7 -1 7 -40
-15z"/>
<path d="M1990 1487 c0 -3 21 -22 48 -43 26 -21 38 -28 27 -15 -21 24 -75 66
-75 58z"/>
<path d="M2885 1429 c-22 -10 -29 -16 -15 -13 28 7 80 33 65 33 -5 0 -28 -9
-50 -20z"/>
<path d="M2130 1385 c14 -8 30 -14 35 -14 6 0 -1 6 -15 14 -14 8 -29 14 -35
14 -5 0 1 -6 15 -14z"/>
<path d="M2706 1385 c-3 -9 0 -15 9 -15 16 0 20 16 6 24 -5 3 -11 -1 -15 -9z"/>
<path d="M2748 1383 c7 -3 16 -2 19 1 4 3 -2 6 -13 5 -11 0 -14 -3 -6 -6z"/>
<path d="M2188 1363 c6 -2 18 -2 25 0 6 3 1 5 -13 5 -14 0 -19 -2 -12 -5z"/>
<path d="M2653 1363 c9 -2 23 -2 30 0 6 3 -1 5 -18 5 -16 0 -22 -2 -12 -5z"/>
<path d="M2353 1343 c26 -2 67 -2 90 0 23 2 2 3 -48 3 -49 0 -68 -1 -42 -3z"/>
<path d="M2125 460 c-3 -5 -1 -10 4 -10 6 0 11 5 11 10 0 6 -2 10 -4 10 -3 0
-8 -4 -11 -10z"/>
<path d="M1980 176 c0 -8 4 -17 9 -20 5 -4 7 3 4 14 -6 23 -13 26 -13 6z"/>
<path d="M2169 173 c-13 -15 -12 -15 9 -4 23 12 28 21 13 21 -5 0 -15 -7 -22
-17z"/>
<path d="M2030 71 c0 -5 5 -13 10 -16 6 -3 10 -2 10 4 0 5 -4 13 -10 16 -5 3
-10 2 -10 -4z"/>
<path d="M2354 516 c-3 -8 -4 -23 -2 -33 3 -11 6 -6 9 15 6 34 2 42 -7 18z"/>
<path d="M2332 478 c-1 -25 -5 -55 -8 -65 -5 -14 -4 -15 5 -7 8 7 11 31 8 65
l-3 54 -2 -47z"/>
<path d="M2351 424 c0 -11 3 -14 6 -6 3 7 2 16 -1 19 -3 4 -6 -2 -5 -13z"/>
<path d="M2342 360 c0 -19 2 -27 5 -17 2 9 2 25 0 35 -3 9 -5 1 -5 -18z"/>
<path d="M2313 355 c-3 -9 -3 -18 -1 -21 3 -3 8 4 11 16 6 23 -1 27 -10 5z"/>
<path d="M4180 1485 c7 -8 22 -14 34 -14 20 2 20 2 -2 6 -12 2 -20 9 -17 14 4
5 -1 9 -11 9 -13 0 -14 -3 -4 -15z"/>
<path d="M4448 1493 c6 -2 18 -2 25 0 6 3 1 5 -13 5 -14 0 -19 -2 -12 -5z"/>
<path d="M4300 1482 c0 -10 86 -9 96 1 4 4 -16 7 -44 7 -29 0 -52 -4 -52 -8z"/>
<path d="M4077 1464 c2 -7 11 -10 19 -7 19 7 18 10 -5 16 -13 3 -18 1 -14 -9z"/>
<path d="M4568 1473 c7 -3 16 -2 19 1 4 3 -2 6 -13 5 -11 0 -14 -3 -6 -6z"/>
<path d="M4400 1460 c0 -5 9 -10 21 -10 11 0 17 5 14 10 -3 6 -13 10 -21 10
-8 0 -14 -4 -14 -10z"/>
<path d="M4223 1453 c9 -2 23 -2 30 0 6 3 -1 5 -18 5 -16 0 -22 -2 -12 -5z"/>
<path d="M4493 1453 c9 -2 25 -2 35 0 9 3 1 5 -18 5 -19 0 -27 -2 -17 -5z"/>
<path d="M4118 1443 c6 -2 18 -2 25 0 6 3 1 5 -13 5 -14 0 -19 -2 -12 -5z"/>
<path d="M4060 1436 c0 -9 30 -14 35 -6 4 6 -3 10 -14 10 -12 0 -21 -2 -21 -4z"/>
<path d="M4150 1424 c-30 -9 -66 -17 -80 -18 -14 -2 -29 -4 -33 -5 -5 0 -5
-10 -2 -21 6 -19 -3 -25 -28 -21 -5 1 -5 -4 -1 -10 4 -7 0 -17 -8 -23 -8 -6
-20 -28 -27 -48 -16 -47 -25 -48 -28 -3 -1 33 10 47 20 25 3 -6 4 -5 3 2 -2 7
-9 13 -17 13 -15 0 -18 -55 -4 -89 5 -12 4 -21 -2 -23 -6 -2 -8 -13 -5 -25 3
-14 1 -19 -6 -14 -7 4 -10 2 -8 -6 2 -7 7 -28 10 -46 5 -30 4 -33 -14 -27 -12
4 -20 2 -20 -5 0 -6 4 -9 9 -6 17 11 38 -30 50 -94 17 -91 32 -138 48 -151 15
-13 18 -33 3 -24 -6 3 -7 -1 -4 -10 4 -9 9 -14 11 -11 6 6 33 -19 33 -31 0 -9
70 -105 101 -139 11 -11 17 -24 14 -27 -3 -4 -2 -5 2 -2 9 7 53 -36 53 -52 0
-7 5 -13 11 -13 7 0 31 -17 54 -38 74 -66 107 -92 116 -92 5 0 9 -4 9 -10 0
-5 4 -10 9 -10 15 0 110 -68 104 -74 -6 -5 21 -10 40 -7 4 0 7 -6 7 -14 0 -8
7 -15 15 -15 13 0 15 16 13 102 l-3 101 -80 48 c-92 55 -91 53 -136 229 -29
114 -31 131 -26 249 5 152 24 212 100 327 51 76 55 79 97 84 30 3 46 10 48 21
2 12 -8 15 -60 12 -35 -1 -97 -7 -138 -12 -107 -14 -171 -14 -167 1 3 18 -22
18 -83 2z m-85 -34 c-3 -5 -11 -10 -16 -10 -6 0 -7 5 -4 10 3 6 11 10 16 10 6
0 7 -4 4 -10z m406 -14 c-10 -12 -28 -14 -51 -6 -5 2 38 17 54 19 5 1 3 -5 -3
-13z m-266 -4 c22 -4 39 -12 37 -17 -2 -6 5 -11 15 -12 15 -2 15 -1 -2 6 -27
12 -9 18 81 26 61 5 72 4 78 -11 3 -9 12 -14 21 -10 19 7 19 1 -1 -29 -9 -14
-20 -22 -25 -19 -5 3 -6 -1 -3 -9 3 -8 -2 -22 -11 -31 -9 -9 -13 -21 -9 -27 4
-7 3 -9 -3 -6 -6 4 -13 -6 -17 -24 -3 -17 -10 -28 -15 -24 -6 3 -9 -5 -9 -17
3 -55 -3 -119 -11 -114 -11 7 -5 -169 9 -248 11 -59 24 -110 41 -151 9 -24 21
-75 13 -57 -3 6 -10 10 -15 6 -5 -3 -9 0 -9 5 0 6 -7 11 -15 11 -9 0 -20 11
-25 25 -5 14 -15 22 -23 20 -12 -5 -92 49 -131 88 -10 9 -31 24 -47 32 -16 9
-29 20 -29 26 0 5 10 3 22 -5 33 -23 45 -19 15 5 -15 11 -34 19 -44 17 -13 -2
-18 3 -17 20 0 12 -3 22 -8 22 -4 0 -8 -7 -8 -16 0 -45 -58 54 -66 114 -21
159 -21 157 -5 182 10 14 11 21 4 17 -35 -22 -2 90 44 150 43 57 84 70 168 55z"/>
<path d="M4135 1330 c-7 -12 2 -12 30 0 19 8 19 9 -2 9 -12 1 -25 -3 -28 -9z"/>
<path d="M4370 1311 c0 -6 4 -13 10 -16 6 -3 7 1 4 9 -7 18 -14 21 -14 7z"/>
<path d="M4025 1280 c-3 -5 -1 -10 4 -10 6 0 11 5 11 10 0 6 -2 10 -4 10 -3 0
-8 -4 -11 -10z"/>
<path d="M4340 1281 c0 -5 5 -13 10 -16 6 -3 10 -2 10 4 0 5 -4 13 -10 16 -5
3 -10 2 -10 -4z"/>
<path d="M4347 1219 c4 -13 8 -18 11 -10 2 7 -1 18 -6 23 -8 8 -9 4 -5 -13z"/>
<path d="M4326 1205 c-9 -26 -7 -32 5 -12 6 10 9 21 6 23 -2 3 -7 -2 -11 -11z"/>
<path d="M4290 736 c0 -2 8 -10 18 -17 15 -13 16 -12 3 4 -13 16 -21 21 -21
13z"/>
<path d="M4275 690 c3 -5 8 -10 11 -10 2 0 4 5 4 10 0 6 -5 10 -11 10 -5 0 -7
-4 -4 -10z"/>
<path d="M4351 683 c-1 -6 -4 -20 -7 -30 -5 -17 -5 -17 6 0 6 10 9 23 6 30 -3
9 -5 9 -5 0z"/>
<path d="M4338 1433 c12 -2 30 -2 40 0 9 3 -1 5 -23 4 -22 0 -30 -2 -17 -4z"/>
<path d="M3975 1410 c-19 -8 -19 -9 3 -9 12 -1 22 4 22 9 0 6 -1 10 -2 9 -2 0
-12 -4 -23 -9z"/>
<path d="M3902 1370 c-8 -13 -8 -20 -2 -20 6 0 13 7 17 15 9 24 -1 27 -15 5z"/>
<path d="M3906 1331 c-4 -7 -5 -15 -2 -18 9 -9 19 4 14 18 -4 11 -6 11 -12 0z"/>
<path d="M3847 1300 c-11 -10 -17 -27 -14 -37 4 -16 5 -16 6 0 0 9 7 17 14 17
7 0 18 9 25 20 16 27 -5 27 -31 0z"/>
<path d="M3911 1274 c0 -11 3 -14 6 -6 3 7 2 16 -1 19 -3 4 -6 -2 -5 -13z"/>
<path d="M3805 1241 c-3 -5 -1 -12 5 -16 5 -3 10 1 10 9 0 18 -6 21 -15 7z"/>
<path d="M3810 1200 c0 -5 5 -10 10 -10 6 0 10 5 10 10 0 6 -4 10 -10 10 -5 0
-10 -4 -10 -10z"/>
<path d="M3926 1015 c11 -48 25 -76 18 -35 -4 19 -10 42 -15 50 -6 10 -7 5 -3
-15z"/>
<path d="M3930 904 c0 -8 5 -12 10 -9 6 4 8 11 5 16 -9 14 -15 11 -15 -7z"/>
<path d="M3812 880 c0 -14 2 -19 5 -12 2 6 2 18 0 25 -3 6 -5 1 -5 -13z"/>
<path d="M3920 874 c0 -13 18 -39 24 -34 2 3 -2 14 -10 24 -8 11 -14 16 -14
10z"/>
<path d="M3960 865 c0 -8 4 -15 10 -15 5 0 7 7 4 15 -4 8 -8 15 -10 15 -2 0
-4 -7 -4 -15z"/>
<path d="M4017 764 c-4 -4 -2 -13 4 -20 6 -8 8 -22 5 -31 -6 -14 -4 -15 5 -6
7 7 8 20 2 38 -4 14 -12 23 -16 19z"/>
<path d="M3901 730 c-8 -4 -21 -6 -29 -2 -10 3 -13 1 -8 -6 4 -7 13 -12 19
-12 16 0 43 18 36 24 -2 3 -11 1 -18 -4z"/>
<path d="M3950 720 c0 -5 5 -10 10 -10 6 0 10 5 10 10 0 6 -4 10 -10 10 -5 0
-10 -4 -10 -10z"/>
<path d="M4038 673 c7 -3 16 -2 19 1 4 3 -2 6 -13 5 -11 0 -14 -3 -6 -6z"/>
<path d="M3327 663 c-4 -3 -7 -11 -7 -17 0 -6 5 -5 12 2 6 6 9 14 7 17 -3 3
-9 2 -12 -2z"/>
<path d="M4085 638 c0 -29 3 -33 32 -34 l31 -2 -30 34 c-17 19 -32 34 -32 34
-1 0 -2 -14 -1 -32z m25 -19 c0 -5 -4 -9 -10 -9 -5 0 -10 7 -10 16 0 8 5 12
10 9 6 -3 10 -10 10 -16z"/>
<path d="M3960 592 c0 -5 7 -15 15 -22 8 -7 15 -8 15 -2 0 5 -7 15 -15 22 -8
7 -15 8 -15 2z"/>
<path d="M3945 560 c3 -5 8 -10 11 -10 2 0 4 5 4 10 0 6 -5 10 -11 10 -5 0 -7
-4 -4 -10z"/>
<path d="M4166 554 c-9 -23 8 -39 28 -27 15 8 15 11 -2 27 -18 16 -20 16 -26
0z m24 -14 c0 -5 -4 -10 -10 -10 -5 0 -10 5 -10 10 0 6 5 10 10 10 6 0 10 -4
10 -10z"/>
<path d="M3104 534 c-18 -14 -18 -15 4 -4 12 6 22 13 22 15 0 8 -5 6 -26 -11z"/>
<path d="M3997 536 c-4 -9 2 -16 16 -20 29 -7 31 -3 8 18 -16 14 -19 15 -24 2z"/>
<path d="M3160 536 c0 -2 7 -7 16 -10 8 -3 12 -2 9 4 -6 10 -25 14 -25 6z"/>
<path d="M4000 490 c0 -5 5 -10 11 -10 5 0 7 5 4 10 -3 6 -8 10 -11 10 -2 0
-4 -4 -4 -10z"/>
<path d="M2908 483 c6 -2 18 -2 25 0 6 3 1 5 -13 5 -14 0 -19 -2 -12 -5z"/>
<path d="M4030 480 c0 -5 5 -10 10 -10 6 0 10 5 10 10 0 6 -4 10 -10 10 -5 0
-10 -4 -10 -10z"/>
<path d="M3330 458 c-12 -22 -12 -22 6 -6 10 10 15 20 12 24 -4 3 -12 -5 -18
-18z"/>
<path d="M3018 463 c7 -3 16 -2 19 1 4 3 -2 6 -13 5 -11 0 -14 -3 -6 -6z"/>
<path d="M4179 453 c-13 -16 -12 -17 4 -4 16 13 21 21 13 21 -2 0 -10 -8 -17
-17z"/>
<path d="M4270 460 c0 -5 5 -10 11 -10 5 0 7 5 4 10 -3 6 -8 10 -11 10 -2 0
-4 -4 -4 -10z"/>
<path d="M2880 449 c0 -5 5 -7 10 -4 6 3 10 8 10 11 0 2 -4 4 -10 4 -5 0 -10
-5 -10 -11z"/>
<path d="M3290 450 c0 -5 5 -10 11 -10 5 0 7 5 4 10 -3 6 -8 10 -11 10 -2 0
-4 -4 -4 -10z"/>
<path d="M2998 443 c7 -3 16 -2 19 1 4 3 -2 6 -13 5 -11 0 -14 -3 -6 -6z"/>
<path d="M4218 433 c7 -3 16 -2 19 1 4 3 -2 6 -13 5 -11 0 -14 -3 -6 -6z"/>
<path d="M4310 430 c0 -5 5 -10 11 -10 5 0 7 5 4 10 -3 6 -8 10 -11 10 -2 0
-4 -4 -4 -10z"/>
<path d="M4096 421 c-4 -5 -2 -12 3 -15 5 -4 12 -2 15 3 4 5 2 12 -3 15 -5 4
-12 2 -15 -3z"/>
<path d="M3249 403 c-13 -16 -12 -17 4 -4 16 13 21 21 13 21 -2 0 -10 -8 -17
-17z"/>
<path d="M3145 400 c-3 -5 -2 -10 4 -10 5 0 13 5 16 10 3 6 2 10 -4 10 -5 0
-13 -4 -16 -10z"/>
<path d="M4338 403 c7 -3 16 -2 19 1 4 3 -2 6 -13 5 -11 0 -14 -3 -6 -6z"/>
<path d="M4130 391 c0 -14 28 -33 44 -29 11 2 7 8 -14 20 -17 9 -30 13 -30 9z"/>
<path d="M4234 367 c0 -20 2 -33 6 -29 3 5 13 11 23 15 23 9 22 27 -2 27 -11
0 -21 5 -23 12 -2 6 -4 -5 -4 -25z"/>
<path d="M4315 363 c-3 -15 -14 -36 -22 -45 -15 -17 -14 -18 4 -18 16 0 21 8
26 42 7 50 2 61 -8 21z"/>
<path d="M4355 370 c3 -5 16 -10 28 -9 21 0 21 1 2 9 -28 12 -37 12 -30 0z"/>
<path d="M4416 346 c7 -17 64 -40 64 -25 0 5 -9 9 -20 9 -11 0 -23 7 -26 15
-4 8 -10 15 -15 15 -4 0 -6 -6 -3 -14z"/>
<path d="M4165 343 c11 -3 24 -11 28 -19 4 -8 13 -14 19 -14 6 0 3 9 -7 20
-10 11 -28 19 -39 19 -20 -1 -20 -2 -1 -6z"/>
<path d="M3160 320 c-9 -6 -10 -10 -3 -10 6 0 15 5 18 10 8 12 4 12 -15 0z"/>
<path d="M4400 320 c0 -5 5 -10 11 -10 5 0 7 5 4 10 -3 6 -8 10 -11 10 -2 0
-4 -4 -4 -10z"/>
<path d="M4231 294 c0 -11 3 -14 6 -6 3 7 2 16 -1 19 -3 4 -6 -2 -5 -13z"/>
<path d="M3371 284 c0 -11 3 -14 6 -6 3 7 2 16 -1 19 -3 4 -6 -2 -5 -13z"/>
<path d="M4438 288 c9 -9 15 -9 24 0 9 9 7 12 -12 12 -19 0 -21 -3 -12 -12z"/>
<path d="M4485 270 c3 -5 10 -10 16 -10 5 0 9 5 9 10 0 6 -7 10 -16 10 -8 0
-12 -4 -9 -10z"/>
<path d="M4576 234 c-11 -7 -18 -16 -15 -18 2 -2 13 2 23 10 11 7 18 16 15 18
-2 2 -13 -2 -23 -10z"/>
<path d="M3402 220 c0 -14 2 -19 5 -12 2 6 2 18 0 25 -3 6 -5 1 -5 -13z"/>
<path d="M3381 214 c0 -11 3 -14 6 -6 3 7 2 16 -1 19 -3 4 -6 -2 -5 -13z"/>
<path d="M4385 210 c-3 -5 -1 -10 4 -10 6 0 11 5 11 10 0 6 -2 10 -4 10 -3 0
-8 -4 -11 -10z"/>
<path d="M4455 190 c-16 -7 -17 -9 -3 -9 9 -1 20 4 23 9 7 11 7 11 -20 0z"/>
<path d="M4380 186 c0 -2 7 -7 16 -10 8 -3 12 -2 9 4 -6 10 -25 14 -25 6z"/>
<path d="M3381 164 c0 -11 3 -14 6 -6 3 7 2 16 -1 19 -3 4 -6 -2 -5 -13z"/>
<path d="M4425 160 c3 -5 14 -10 23 -10 15 0 15 2 2 10 -20 13 -33 13 -25 0z"/>
<path d="M3401 134 c0 -11 3 -14 6 -6 3 7 2 16 -1 19 -3 4 -6 -2 -5 -13z"/>
<path d="M4570 110 c0 -5 7 -10 16 -10 8 0 12 5 9 10 -3 6 -10 10 -16 10 -5 0
-9 -4 -9 -10z"/>
</g>
</svg>
